<svg viewBox="0 0 40 32" xmlns="http://www.w3.org/2000/svg"><g fill="currentColor"><path d="M23.012 31.18c1.632 0 3.012-.372 4.14-1.116 1.128-.744 2.28-1.824 3.456-3.24.456-.552.684-1.296.684-2.232 0-.504-.09-.9-.27-1.188-.18-.288-.426-.432-.738-.432-.36 0-.684.168-.972.504-1.056 1.248-1.932 2.13-2.628 2.646-.696.516-1.428.774-2.196.774-.792 0-1.38-.294-1.764-.882-.384-.588-.576-1.53-.576-2.826 0-1.464.258-3.606.774-6.426.516-2.82 1.086-5.394 1.71-7.722.072-.288.108-.528.108-.72 0-1.104-.852-1.656-2.556-1.656-.72 0-1.296.12-1.728.36-.432.24-.72.696-.864 1.368-.888 4.608-1.788 8.256-2.7 10.944-.912 2.688-1.92 4.632-3.024 5.832-1.104 1.2-2.388 1.8-3.852 1.8-1.296 0-2.346-.558-3.15-1.674C6.062 24.178 5.66 22.6 5.66 20.56c0-2.808.528-5.424 1.584-7.848 1.056-2.424 2.652-4.374 4.788-5.85s4.728-2.214 7.776-2.214c.984 0 1.92.066 2.808.198.888.132.768-1.193 2.016-.905.096.024 1.038.058 1.23.058h2.73c.746 0 0-.455 0-1.079 0-.768-.336-1.248-1.008-1.44a19.397 19.397 0 0 0-3.438-.756A26.91 26.91 0 0 0 20.6.472c-4.272 0-7.932.942-10.98 2.826-3.048 1.884-5.352 4.38-6.912 7.488-1.56 3.108-2.34 6.486-2.34 10.134 0 2.112.384 3.942 1.152 5.49.768 1.548 1.818 2.73 3.15 3.546 1.332.816 2.826 1.224 4.482 1.224 3.456 0 6.072-1.86 7.848-5.58.264 1.776.912 3.15 1.944 4.122s2.388 1.458 4.068 1.458Z"/><path d="M18.892 28.502c1.757-1.56 1.585-6.398 2.364-10.313l1.763-.43 6.141.43c.886.061 1.585-.125 2.096-.558.512-.433.796-1.057.853-1.871.037-.527-.083-.956-.361-1.288-.277-.333-.86-.53-1.745-.592l-6.184-.324c.515-2.899.975-5.371 1.51-8.894h13.276c.71 0 1.064-.292 1.064-.875 0-1.098.01-1.918 0-2.516-.009-.599.01-.929-1.064-.929H28.02c-5.938 0-11.25 0-13.672 1.527-2.424 1.527-5.379 2.144-5.586 5.113-.064.91-2.488 5.975.102 2.15 2.59-3.826 4.847-3.945 5.942-4.47 1.095-.525 2.944-.817 5.547-.875a501.227 501.227 0 0 1-1.605 9.523 53.505 53.505 0 0 1-1.977-.102c-.742-.052-1.319.106-1.73.474-.41.368-.642.924-.693 1.666-.04.574.126 1.031.5 1.37.372.339.834.528 1.385.566l1.724.12-.354 1.96c-.43 2.376-.467 10.7 1.29 9.138Z"/></g></svg>