<svg xmlns="http://www.w3.org/2000/svg" viewBox="0 0 1024 167">
  <g fill="none" fill-rule="evenodd">
    <g fill="#FFFFFE" fill-rule="nonzero" transform="translate(0 -70)">
      <g transform="translate(-43 -28)">
        <path d="M1039.87 110.069c-12.465-3.992-22.118 6.592-26.35 11.67-22.815-9.046-38.57 4.609-46.626 15.748-9.599-4.71-38.803-15.178-45.985-3.781-24.453-15.115-67.283-12.108-77.92 9.514-13.175-1.75-23.237-4.202-36.099-.289-10.513 3.21-25.804 11.444-25.545 18.341-15.633-6.155-35.84-9.217-42.08 2.797 1.775-7.632-18.022-17.888-32.918-19.2-20.138-1.766-36.454 4.46-49.452 11.998-5.284-15.232-41.233-28.426-61.33-12.913-16.112-22.63-75.818-14.92-89.198 4.781-13.408-8.42-29.655-2.937-37.601 5.304-.096.102-.3.203-.52.297-9.488-8.67-26.623-8.593-39.307-1.797-5.543-16.138-48.51-22.98-68.84-12.186-4-7.616-27.143-7.288-37.793-6.413-21.203 1.742-35.143 7.116-39.158 19.326-16.78-8.562-48.646-11.14-56.005 4.82-6.827-4.633-22.242-6.133-28.905-.72-3.74-5.428-18.76-8.795-25.94-4.155-7.988-7.936-26.898-20.849-45.193-13.037-4.192-13.373-30.243-28.278-51.296-15.725-7.236-10.334-19.524-13.513-32.809-12.451V265c13.326-1.945 26.624-4.109 40.236-5.35 40.892-3.742 82.548-2.391 123.781-3.797 87.382-2.984 174.326.633 261.585-1.484 59.801-1.445 119.548-2.953 179.336-4.687 117.692-3.398 235.643-2.914 353.171-6.491 21.531-.657 43.882-1.469 65.891-3.063V98c-12.834.594-24.153 3.703-27.13 12.069z" class="blog__desktop__background__path"/>
      </g>
    </g>
  </g>
</svg>
