<?xml version="1.0" encoding="UTF-8"?>
<svg viewBox="0 0 523 572" version="1.1" xmlns="http://www.w3.org/2000/svg" xmlns:xlink="http://www.w3.org/1999/xlink">
    <!-- Generator: Sketch 61.2 (89653) - https://sketch.com -->
    <g id="Dark-logo" stroke="none" stroke-width="1" fill="none" fill-rule="evenodd">
        <g id="dark-logo" transform="translate(-18.000000, -5.000000)">
            <path d="M408.092269,6.57035535 C425.028207,3.25367064 441.557518,13.9864701 445.418628,30.8059953 L445.418628,30.8059953 L445.532844,31.3227187 L513.727878,352.155132 L513.806489,352.540123 C516.294003,365.242077 508.244403,377.63906 495.629759,380.534893 L495.629759,380.534893 L495.242217,380.620555 L486.761677,382.423149 L486.823208,383.073812 C488.430328,399.533039 495.171109,430.306625 500.586443,444.914402 L500.586443,444.914402 L508.548565,443.222001 L508.933556,443.143391 C521.635511,440.655877 534.032494,448.705477 536.928326,461.32012 L536.928326,461.32012 L537.013988,461.707663 L540.340575,477.358025 L540.419186,477.743016 C542.906699,490.44497 534.857099,502.841953 522.242456,505.737786 L522.242456,505.737786 L521.854913,505.823448 L201.0225,574.018482 L199.482534,574.332925 C148.674717,584.282979 99.0867851,552.084581 87.5034554,501.626005 L87.5034554,501.626005 L87.160808,500.075835 L20.6290669,187.068603 L20.3146242,185.528636 C10.3645701,134.72082 42.5629684,85.1328877 93.0215442,73.549558 L93.0215442,73.549558 L94.5717143,73.2069106 L407.578946,6.67516958 Z" id="Combined-Shape" fill="#111828"></path>
            <g id="book-spells-duotone" fill-rule="nonzero">
                <g id="Book" transform="translate(273.000000, 297.000000) rotate(-12.000000) translate(-273.000000, -297.000000) translate(49.000000, 41.000000)">
                    <path d="M96,448 C76.8,448 64,435.2 64,416 C64,396.8 80,384 96,384 L415.33,384 C413.4,400.24 413.57,432.38 415.86,448 L96,448 Z" id="Path" fill="#323976" opacity="0.4"></path>
                    <path d="M96,384 L424,384 C437.254834,384 448,373.254834 448,360 L448,32 C448,14.326888 433.673112,-1.42108547e-13 416,-1.42108547e-13 L96,-1.42108547e-13 C42.980664,-1.42108547e-13 -8.52651283e-14,42.980664 -8.52651283e-14,96 L-8.52651283e-14,416 C-8.52651283e-14,469.019336 42.980664,512 96,512 L424,512 C437.254834,512 448,501.254834 448,488 L448,472 C448,458.745166 437.254834,448 424,448 L96,448 C76.8,448 64,435.2 64,416 C64,396.8 80,384 96,384 Z M272,160 L298.66,213.33 L352,240 L298.66,266.67 L272,320 L245.34,266.67 L192,240 L245.34,213.33 L272,160 Z M160,96 L176,64 L192,96 L224,112 L192,128 L176,160 L160,128 L128,112 L160,96 Z" id="Shape" fill="#6366F1"></path>
                </g>
            </g>
        </g>
    </g>
</svg>