<svg viewBox="0 0 523 572">
  <g fill="none" fill-rule="evenodd">
    <path fill="#111828" d="M390.1 1.57a32 32 0 0 1 37.32 24.24l.11.51 68.2 320.84.08.38a24 24 0 0 1-18.18 28l-.39.08-8.48 1.8.06.65c1.61 16.46 8.35 47.24 13.77 61.84l7.96-1.69.38-.08a24 24 0 0 1 28 18.18l.08.39 3.33 15.65.08.38a24 24 0 0 1-18.18 28l-.39.08-320.83 68.2-1.54.31a96 96 0 0 1-111.98-72.7l-.34-1.55L2.63 182.07l-.32-1.54A96 96 0 0 1 75.02 68.55l1.55-.34 313-66.53Z"/>
    <g fill-rule="nonzero">
      <path fill="#323976" d="M169.72 506.42c-18.78 3.99-33.97-5.87-37.96-24.65-3.99-18.78 9-34.63 24.65-37.95l312.35-66.4c1.49 16.29 8.34 47.7 13.83 62.5l-312.87 66.5Z" opacity=".4"/>
      <path fill="#6366F1" d="m156.41 443.82 320.83-68.2a24 24 0 0 0 18.49-28.46l-68.2-320.84a32 32 0 0 0-37.95-24.64l-313 66.53A96 96 0 0 0 2.62 182.07l66.53 313a96 96 0 0 0 113.86 73.95l320.83-68.2a24 24 0 0 0 18.5-28.46L519 456.7a24 24 0 0 0-28.46-18.49l-320.83 68.2c-18.78 3.99-33.97-5.87-37.96-24.65-3.99-18.78 9-34.63 24.65-37.95Zm125.58-255.7 37.17 46.62 57.72 15-46.63 37.17-15 57.71L278.1 298l-57.72-15L267 245.83l15-57.71ZM159.13 148.8l9-34.62 22.3 27.97 34.63 9-27.97 22.3-9 34.63-22.3-27.98-34.63-9 27.97-22.3Z"/>
    </g>
  </g>
</svg>
