<?xml version="1.0" encoding="UTF-8"?>
<svg  viewBox="0 0 184 162" version="1.1" xmlns="http://www.w3.org/2000/svg" xmlns:xlink="http://www.w3.org/1999/xlink">
    <!-- Generator: Sketch 61.2 (89653) - https://sketch.com -->
    <title>Combined-Shape</title>
    <desc>Created with Sketch.</desc>
    <g id="Page-1" stroke="none" stroke-width="1" fill="none" fill-rule="evenodd">
        <g id="minafi-black" transform="translate(0.531409, -0.288625)" fill="#4A4A4A" fill-rule="nonzero">
            <path d="M13.7163495,51.6076646 L81.2208773,51.6076646 L87.6872185,51.6067352 L87.6872185,48.0287044 C87.6872185,41.234027 88.8076007,34.9273589 91.0484021,29.1085111 C93.2891973,23.2896634 96.6864865,18.2479453 101.240366,13.983199 C105.794248,9.71845425 111.558793,6.375378 118.534181,3.95387021 C125.509569,1.53236273 133.731729,0.321626802 143.200909,0.321626802 C146.236829,0.321626802 149.326916,0.484263017 152.471261,0.809540095 C155.61561,1.13481748 158.344281,1.65886703 160.657362,2.38170515 L159.789961,16.2601277 C159.645396,17.9226543 158.741861,18.9165414 157.079331,19.2418201 C155.416805,19.5670987 153.356748,19.7297334 150.899096,19.7297334 C143.887569,19.7297334 138.014595,20.3441355 133.280005,21.5729614 C128.545415,22.8017873 124.714432,24.6269268 121.786937,27.0484328 C118.859444,29.4699418 116.763245,32.5058158 115.498276,36.1561476 C114.233311,39.8064794 113.600836,44.0530908 113.600836,48.8961058 L113.600836,51.6067352 L182.559248,51.6067352 L182.559248,161.87514 L155.778229,161.87514 L155.778229,70.6895663 L114.468237,70.6895663 L114.468237,161.87514 L111.856625,161.87514 L85.0756061,161.87514 L85.0756061,70.6895663 L43.7656139,70.6895663 L43.7656139,161.87514 L16.9845941,161.87514 L16.9845941,70.7979914 L7.33475341,69.280039 C5.2385227,68.8463352 3.55794919,68.1054381 2.29298271,67.0573229 C1.02801586,66.0092076 0.395542001,64.5093405 0.395542001,62.557678 L0.395542001,51.6067352 L13.7163966,51.6067352 L13.7163495,51.6076646 Z" id="Combined-Shape"></path>
        </g>
    </g>
</svg>