<?xml version="1.0" encoding="UTF-8"?>
<svg viewBox="0 0 15 10" version="1.1" xmlns="http://www.w3.org/2000/svg" xmlns:xlink="http://www.w3.org/1999/xlink">
  <g id="Page-1" stroke="none" stroke-width="1" fill="none" fill-rule="evenodd">
    <g id="mountains" transform="translate(0.400000, 0.000000)" fill-rule="nonzero">
      <path d="M11.316,4.64266667 C11.3425249,6.1018361 10.5792486,7.46165993 9.3198063,8.19900923 C8.06036396,8.93635853 6.50096938,8.93635853 5.24152704,8.19900923 C3.98208469,7.46165993 3.21880846,6.1018361 3.24533333,4.64266667 C3.28532622,2.44260357 5.0802401,0.680021209 7.28066667,0.680021209 C9.48109323,0.680021209 11.2760071,2.44260357 11.316,4.64266667" id="Path" fill="#FCE1A8"></path>
      <path d="M1.00933333,8.12533333 C-1.384,8.592 1.756,9.53733333 2.66266667,9.62533333 C4.188,9.77333333 5.712,9.592 7.23733333,9.592 C9.12533333,9.592 12.68,10.3693333 14.292,9.30133333 C14.3786667,8.76933333 13.888,8.63866667 13.492,8.75066667 C14.124,7.77066667 13.0106667,7.23333333 12.212,7.65733333 C12.2413333,6.35866667 11.612,6.008 10.5426667,6.99066667 C10.7226667,5.25733333 8.68,3.464 6.96666667,4.064 C5.744,4.49066667 5.004,6.14 5.04933333,7.36266667 C4.50266667,6.08133333 2.728,6.66266667 3.10533333,7.83733333 C2.34533333,6.79066667 0.909333333,6.55733333 1.11466667,8.20666667 C1.31733333,8.19733333 1.42666667,8.04266667 1.008,8.12533333" id="Path" fill="#FFFFFE"></path>
    </g>
  </g>
</svg>